<svg xmlns="http://www.w3.org/2000/svg" version="1.1" xmlns:xlink="http://www.w3.org/1999/xlink" xmlns:svgjs="http://svgjs.dev/svgjs" width="2000" height="1247" viewBox="0 0 2000 1247"><g transform="matrix(1,0,0,1,-1.2121212121212466,0.504858299595071)"><svg viewBox="0 0 396 247" data-background-color="#ffffff" preserveAspectRatio="xMidYMid meet" height="1247" width="2000" xmlns="http://www.w3.org/2000/svg" xmlns:xlink="http://www.w3.org/1999/xlink"><g id="tight-bounds" transform="matrix(1,0,0,1,0.2400000000000091,-0.09999999999999432)"><svg viewBox="0 0 395.52 247.2" height="247.2" width="395.52"><g><svg></svg></g><g><svg viewBox="0 0 395.52 247.2" height="247.2" width="395.52"><g transform="matrix(1,0,0,1,75.54432,84.70590056759976)"><svg viewBox="0 0 244.43135999999998 77.78819886480048" height="77.78819886480048" width="244.43135999999998"><g><svg viewBox="0 0 446.0469143085089 141.95063216626914" height="77.78819886480048" width="244.43135999999998"><g><rect width="9.262846962233391" height="123.25669942078362" x="168.1044168692248" y="9.346966372742763" fill="#000000" opacity="1" stroke-width="0" stroke="transparent" fill-opacity="1" class="rect-qz-0" data-fill-palette-color="primary" rx="1%" id="qz-0" data-palette-color="#000000"></rect></g><g transform="matrix(1,0,0,1,201.61555430850896,19.618357991141394)"><svg viewBox="0 0 244.43135999999998 102.71391618398636" height="102.71391618398636" width="244.43135999999998"><g id="textblocktransform"><svg viewBox="0 0 244.43135999999998 102.71391618398636" height="102.71391618398636" width="244.43135999999998" id="textblock"><g><svg viewBox="0 0 244.43135999999998 102.71391618398636" height="102.71391618398636" width="244.43135999999998"><g transform="matrix(1,0,0,1,0,0)"><svg width="244.43135999999998" viewBox="2.25 -36.5 88.04 37" height="102.71391618398636" data-palette-color="#000000"><path d="M15.1 0.3L15.1 0.3Q11.9 0.3 9.5-0.95 7.1-2.2 5.48-4.3 3.85-6.4 3.05-9.05 2.25-11.7 2.25-14.45L2.25-14.45Q2.25-17.45 3.15-20.48 4.05-23.5 5.78-26.25 7.5-29 9.93-31.13 12.35-33.25 15.43-34.48 18.5-35.7 22.1-35.7L22.1-35.7Q27-35.7 29.8-33.48 32.6-31.25 33.5-27.95L33.5-27.95 29.75-25.8Q29.1-28.15 27.83-29.43 26.55-30.7 24.93-31.18 23.3-31.65 21.5-31.65L21.5-31.65Q17.75-31.65 15-30.13 12.25-28.6 10.43-26.13 8.6-23.65 7.7-20.73 6.8-17.8 6.8-15L6.8-15Q6.8-11.95 7.85-9.38 8.9-6.8 10.95-5.28 13-3.75 15.9-3.75L15.9-3.75Q17.7-3.75 19.63-4.42 21.55-5.1 23.35-6.48 25.15-7.85 26.55-10L26.55-10 29.85-7.95Q28.1-5.15 25.6-3.3 23.1-1.45 20.38-0.58 17.65 0.3 15.1 0.3ZM32.9 0L38.45-26.1 42.55-26.1 41.25-20.05Q43.15-22.75 45.57-24.45 48-26.15 50.4-26.15L50.4-26.15Q50.85-26.15 51.17-26.13 51.5-26.1 51.7-26.05L51.7-26.05 50.9-22.25Q47.8-22.2 45.05-20.58 42.3-18.95 40.7-16.1L40.7-16.1 37.3 0 32.9 0ZM50.59 0L56.14-26.1 60.55-26.1 54.99 0 50.59 0ZM57.2-31L58.34-36.5 62.74-36.5 61.59-31 57.2-31ZM70.69 0.5L70.69 0.5Q67.54 0.5 64.84-0.48 62.14-1.45 60.44-3.3L60.44-3.3 62.94-6.25Q64.74-4.55 66.77-3.73 68.79-2.9 71.09-2.9L71.09-2.9Q73.09-2.9 74.62-3.48 76.14-4.05 76.99-5.13 77.84-6.2 77.84-7.6L77.84-7.6Q77.84-9.4 76.34-10.08 74.84-10.75 71.89-11.6L71.89-11.6Q69.44-12.35 67.82-13 66.19-13.65 65.42-14.68 64.64-15.7 64.64-17.5L64.64-17.5Q64.64-20.2 66.14-22.23 67.64-24.25 70.19-25.4 72.74-26.55 75.94-26.55L75.94-26.55Q78.89-26.55 81.09-25.6 83.29-24.65 84.69-23.1L84.69-23.1 82.14-20.45Q80.89-21.9 79.34-22.55 77.79-23.2 75.74-23.2L75.74-23.2Q73.79-23.2 72.27-22.68 70.74-22.15 69.87-21.1 68.99-20.05 68.99-18.5L68.99-18.5Q68.99-16.95 70.09-16.32 71.19-15.7 73.94-14.95L73.94-14.95Q76.64-14.2 78.52-13.38 80.39-12.55 81.34-11.35 82.29-10.15 82.29-8.15L82.29-8.15Q82.29-5.7 80.87-3.75 79.44-1.8 76.84-0.65 74.24 0.5 70.69 0.5ZM89.09 0L85.39 0 86.59-5.6 90.29-5.6 89.09 0Z" opacity="1" transform="matrix(1,0,0,1,0,0)" fill="#000000" class="wordmark-text-0" data-fill-palette-color="primary" id="text-0"></path></svg></g></svg></g></svg></g></svg></g><g><svg viewBox="0 0 143.85612639217402 141.95063216626914" height="141.95063216626914" width="143.85612639217402"><g><svg xmlns="http://www.w3.org/2000/svg" xmlns:xlink="http://www.w3.org/1999/xlink" version="1.1" x="0" y="0" viewBox="0.338 1.149000000000001 99.352 98.036" enable-background="new 0 0 100 100" xml:space="preserve" height="141.95063216626914" width="143.85612639217402" class="icon-icon-0" data-fill-palette-color="accent" id="icon-0"><path d="M30.388 45.532c-3.021 0-5.477 2.456-5.477 5.477 0 3.02 2.457 5.476 5.477 5.476 3.02 0 5.475-2.456 5.475-5.476C35.863 47.987 33.408 45.532 30.388 45.532zM30.388 53.641c-1.452 0-2.633-1.182-2.633-2.632 0-1.452 1.181-2.633 2.633-2.633 1.451 0 2.632 1.181 2.632 2.633C33.02 52.459 31.839 53.641 30.388 53.641z" fill="#000000" data-fill-palette-color="accent"></path><path d="M42.179 47.657l-2.135-0.525c-0.042-0.096-0.085-0.193-0.131-0.293l1.078-1.811c0.333-0.56 0.243-1.272-0.217-1.733l-2.665-2.658c-0.457-0.456-1.165-0.547-1.724-0.221l-1.835 1.077c-0.099-0.048-0.2-0.094-0.302-0.139l-0.521-2.146c-0.156-0.637-0.726-1.085-1.382-1.085h-3.759c-0.657 0-1.227 0.448-1.382 1.085l-0.503 2.071c-0.134 0.052-0.269 0.109-0.405 0.171l-1.704-1.003c-0.559-0.33-1.272-0.238-1.73 0.223l-2.657 2.675c-0.459 0.461-0.545 1.174-0.212 1.732l0.958 1.6c-0.088 0.178-0.174 0.362-0.255 0.558l-1.944 0.482c-0.635 0.156-1.08 0.725-1.08 1.378v3.759c0 0.654 0.447 1.225 1.082 1.382l1.906 0.467c0.078 0.194 0.163 0.393 0.256 0.592l-0.959 1.611c-0.332 0.56-0.243 1.274 0.218 1.734l2.664 2.657c0.464 0.464 1.186 0.549 1.746 0.206l1.624-0.992c0.187 0.087 0.385 0.176 0.594 0.259l0.463 1.862c0.157 0.634 0.726 1.079 1.379 1.079h3.758c0.654 0 1.222-0.445 1.38-1.082l0.49-1.971c0.158-0.067 0.315-0.139 0.477-0.217l1.722 1.037c0.561 0.337 1.276 0.25 1.737-0.212l2.659-2.653c0.461-0.46 0.55-1.177 0.213-1.736l-1.116-1.862c0.05-0.109 0.098-0.22 0.145-0.333l2.068-0.505c0.635-0.157 1.083-0.728 1.083-1.381v-3.76C43.261 48.384 42.813 47.813 42.179 47.657zM40.417 51.682l-1.725 0.424c-0.495 0.122-0.887 0.496-1.028 0.988-0.131 0.453-0.368 0.93-0.581 1.345-0.223 0.437-0.207 0.96 0.047 1.381l0.942 1.57-1.086 1.083-1.458-0.877c-0.441-0.266-0.99-0.271-1.435-0.02-0.531 0.304-1.004 0.516-1.446 0.657-0.472 0.147-0.833 0.532-0.953 1.014l-0.403 1.621h-1.535l-0.383-1.536c-0.124-0.497-0.506-0.89-1-1.027-0.445-0.123-0.924-0.329-1.555-0.67-0.445-0.241-0.984-0.226-1.416 0.039l-1.348 0.822-1.089-1.085 0.795-1.338c0.259-0.436 0.267-0.974 0.022-1.415-0.309-0.556-0.527-1.062-0.668-1.546-0.142-0.488-0.533-0.864-1.025-0.983l-1.576-0.387V50.21l1.599-0.397c0.487-0.119 0.876-0.488 1.021-0.97 0.162-0.542 0.453-1.092 0.688-1.511 0.25-0.445 0.242-0.987-0.02-1.426l-0.802-1.339 1.101-1.109 1.409 0.831c0.425 0.25 0.948 0.263 1.383 0.034 0.521-0.272 0.978-0.465 1.401-0.587 0.49-0.142 0.866-0.534 0.987-1.03l0.422-1.738h1.525l0.434 1.787c0.118 0.485 0.482 0.874 0.958 1.021 0.424 0.131 0.878 0.365 1.306 0.594 0.437 0.233 0.961 0.223 1.389-0.027l1.562-0.916 1.104 1.101-0.91 1.528c-0.255 0.43-0.267 0.961-0.029 1.4 0.27 0.502 0.452 0.917 0.573 1.305 0.149 0.476 0.535 0.838 1.017 0.958l1.784 0.438V51.682z" fill="#000000" data-fill-palette-color="accent"></path><path d="M14.936 61.41c-1.509 0-2.738 1.226-2.738 2.736 0 1.51 1.229 2.738 2.738 2.738 1.51 0 2.738-1.229 2.738-2.738C17.673 62.636 16.446 61.41 14.936 61.41zM14.936 65.462c-0.726 0-1.316-0.59-1.316-1.315 0-0.727 0.59-1.314 1.316-1.314 0.725 0 1.317 0.588 1.317 1.314C16.251 64.872 15.661 65.462 14.936 65.462z" fill="#000000" data-fill-palette-color="accent"></path><path d="M20.832 62.471l-1.068-0.263c-0.021-0.048-0.042-0.096-0.065-0.146l0.539-0.905c0.167-0.28 0.123-0.638-0.109-0.868l-1.332-1.328c-0.229-0.229-0.583-0.273-0.862-0.111l-0.918 0.539c-0.049-0.024-0.099-0.046-0.151-0.067l-0.26-1.074c-0.077-0.319-0.363-0.544-0.69-0.544h-1.879c-0.329 0-0.614 0.227-0.691 0.544l-0.252 1.035c-0.067 0.026-0.135 0.054-0.203 0.087l-0.852-0.502c-0.279-0.165-0.636-0.119-0.864 0.11l-1.33 1.337c-0.229 0.233-0.272 0.589-0.105 0.866l0.478 0.803c-0.044 0.088-0.086 0.18-0.128 0.277l-0.972 0.241c-0.316 0.078-0.54 0.362-0.54 0.689v1.881c0 0.325 0.223 0.609 0.542 0.689l0.953 0.233c0.04 0.097 0.082 0.196 0.128 0.297l-0.479 0.806c-0.167 0.279-0.122 0.636 0.109 0.866l1.332 1.328c0.231 0.231 0.593 0.275 0.873 0.104l0.812-0.498c0.093 0.046 0.192 0.087 0.296 0.131l0.232 0.932c0.08 0.316 0.364 0.538 0.689 0.538h1.88c0.327 0 0.61-0.222 0.689-0.541l0.245-0.985c0.078-0.033 0.157-0.07 0.237-0.108l0.862 0.519c0.28 0.169 0.638 0.124 0.868-0.106l1.329-1.326c0.231-0.229 0.276-0.588 0.107-0.868l-0.558-0.932c0.025-0.055 0.049-0.108 0.072-0.164l1.034-0.254c0.318-0.079 0.541-0.363 0.541-0.691v-1.88C21.372 62.836 21.149 62.552 20.832 62.471zM19.951 64.483l-0.863 0.213c-0.248 0.061-0.444 0.247-0.514 0.492-0.065 0.229-0.185 0.468-0.29 0.673-0.112 0.22-0.104 0.479 0.022 0.691l0.471 0.783-0.544 0.543-0.728-0.438c-0.221-0.133-0.495-0.135-0.717-0.009-0.267 0.151-0.503 0.259-0.723 0.327-0.237 0.076-0.417 0.268-0.477 0.509l-0.202 0.81H14.62l-0.191-0.769c-0.062-0.248-0.253-0.445-0.501-0.513-0.221-0.062-0.461-0.165-0.777-0.336-0.223-0.12-0.492-0.111-0.708 0.019l-0.673 0.413-0.546-0.543 0.399-0.669c0.129-0.219 0.133-0.488 0.009-0.709-0.153-0.275-0.263-0.529-0.333-0.773-0.071-0.243-0.266-0.43-0.514-0.49L10 64.514v-0.767l0.8-0.197c0.243-0.061 0.438-0.245 0.509-0.486 0.081-0.271 0.227-0.545 0.344-0.756 0.126-0.221 0.122-0.492-0.01-0.714l-0.4-0.669 0.55-0.554 0.706 0.415c0.212 0.126 0.473 0.133 0.69 0.018 0.261-0.137 0.488-0.231 0.701-0.293 0.245-0.071 0.433-0.269 0.494-0.517l0.211-0.868h0.762l0.217 0.892c0.059 0.244 0.242 0.438 0.481 0.513 0.211 0.064 0.438 0.183 0.652 0.298 0.219 0.116 0.481 0.11 0.694-0.014l0.78-0.458 0.553 0.549-0.454 0.765c-0.128 0.215-0.133 0.479-0.015 0.699 0.135 0.251 0.226 0.458 0.287 0.651 0.074 0.238 0.267 0.419 0.509 0.479l0.891 0.22V64.483z" fill="#000000" data-fill-palette-color="accent"></path><circle cx="49.503" cy="82.694" r="1.6" fill="#000000" data-fill-palette-color="accent"></circle><path d="M99.69 50.825c0-27.435-22.24-49.676-49.675-49.676C22.58 1.149 0.338 23.39 0.338 50.825c0 23.083 15.744 42.485 37.079 48.062 0.26 0.105 0.573 0.183 0.941 0.234 0.287 0.04 0.605 0.063 0.967 0.063h0.745c-0.859-0.002-1.555-0.746-1.555-1.667 0-0.208 0.039-0.404 0.103-0.586 0 0 0 0-0.001 0 0.053-0.159 0.224-0.554 0.644-0.832 0.089-0.057 0.184-0.108 0.285-0.147 0.077-0.042 0.15-0.08 0.234-0.123 3.525-1.194 4.776-3.41 5.742-8.53h8.929c1.023 5.061 2.274 7.279 5.799 8.53 0.131 0.064 0.247 0.125 0.359 0.186 0.487 0.303 0.725 0.812 0.781 0.951 0.058 0.172 0.095 0.355 0.095 0.552 0 0.921-0.695 1.665-1.555 1.667h0.776c0.349 0 0.657-0.02 0.937-0.057 0.412-0.052 0.752-0.141 1.03-0.258 0.446-0.117 0.888-0.249 1.329-0.379h0.032v-0.009C84.642 92.431 99.69 73.39 99.69 50.825zM28.634 84.971c-1.138 0-1.934-0.572-1.934-1.766v-3.354h46.629v3.354c0 1.193-0.797 1.766-1.933 1.766H28.634zM63.306 95.315c-0.428-0.469-1.123-0.88-2.202-1.42 0 0 0 0-0.057-0.056-2.389-0.797-3.412-2.047-4.379-6.597h14.729c2.33 0 4.207-1.648 4.207-4.038V52.216c0-2.332-1.877-4.209-4.207-4.209H45.836c0.139 0.742 0.227 1.5 0.258 2.275h25.245c1.193 0 1.934 0.797 1.934 1.934v25.929H26.7V66.2c-0.783-0.186-1.543-0.435-2.274-0.733v17.738c0 2.332 1.876 4.038 4.208 4.038h14.727c-0.966 4.55-1.989 5.8-4.378 6.597-1.113 0.557-1.832 0.979-2.27 1.474C17.556 89.594 3.589 71.843 3.589 50.825c0-25.641 20.785-46.427 46.425-46.427 25.642 0 46.427 20.787 46.427 46.427C96.44 71.845 82.469 89.6 63.306 95.315z" fill="#000000" data-fill-palette-color="accent"></path></svg></g></svg></g></svg></g></svg></g><path d="M213.643 78.706L213.643 19.314 5.07 19.314 5.07 227.886 213.643 227.886 213.643 168.494 208.567 168.494 208.567 222.81 10.146 222.81 10.146 24.39 208.567 24.39 208.567 78.706Z" fill="#000000" stroke="transparent" data-fill-palette-color="primary"></path></svg></g><defs></defs></svg><rect width="395.52" height="247.2" fill="none" stroke="none" visibility="hidden"></rect></g></svg></g></svg>